<svg width="128" height="119" viewBox="0 0 128 119" fill="none" xmlns="http://www.w3.org/2000/svg">
<path d="M80.4078 6.75055L72.2552 13.5473L71.773 10.4024L71.5642 10.4184L71.3877 14.3114V14.3274C71.1575 14.6579 70.8677 15.0712 70.5546 15.5178L70.5544 15.5182C69.8394 16.538 69.0028 17.7311 68.4773 18.5077L66.4674 21.4757L62.206 10.4665L66.9497 0.0955998L66.757 0L61.5329 9.81411L55.2137 5.36243L55.0851 5.52217L61.2116 10.6916L65.2959 23.3762C65.2959 23.4999 65.2973 23.7877 65.2991 24.187C65.3064 25.7452 65.3217 29.0022 65.2959 30.8433C65.2959 31.5771 65.2959 32.1519 65.2798 32.6785C65.2692 33.2117 65.2725 33.7452 65.276 34.3148V34.3157C65.2779 34.6146 65.2798 34.9235 65.2798 35.2474V37.1462C65.2798 43.9572 65.9379 58.496 66.1094 62.2848C66.1351 62.8523 66.1499 63.1788 66.1499 63.2017H66.3587C66.3587 63.1755 66.3743 62.8111 66.4014 62.1821L66.4015 62.1798L66.4015 62.179C66.5723 58.2065 67.1952 43.7138 67.1952 37.1462V31.402L67.1629 29.1204C67.1467 27.2217 67.1144 25.2589 67.0504 23.3281L69.6071 19.0997C70.2342 18.0946 71.3119 16.3864 71.8904 15.4775C72.1154 15.1266 72.2279 14.9508 72.2764 14.8553L80.542 6.90964L80.4078 6.75055Z" fill="white"/>
<path d="M126.895 75.2765L126.943 75.2651L128 75.2665L127.301 75.5915C126.933 75.7626 126.537 75.9308 126.124 76.0905C124.003 76.8787 121.83 77.5166 119.62 77.9993C117.041 78.598 114.136 79.1403 110.987 79.6107C108.242 80.0246 105.202 80.4114 101.956 80.7588L101.873 80.772L101.245 80.8343C101.061 80.8552 100.879 80.8747 100.689 80.8942C98.764 81.0881 96.8402 81.2644 94.9685 81.4169C74.2462 83.4749 65.8283 85.3848 65.7468 85.4033L65.7245 85.4085L65.6647 85.4023C65.5903 85.3833 57.8485 83.464 39.5241 81.8702L39.4661 81.867C39.4328 81.8651 39.3992 81.863 39.3655 81.861L39.358 81.8605L39.3563 81.8605L39.3533 81.8603C39.2929 81.8566 39.2323 81.853 39.1723 81.8498L38.8575 81.8313C35.8746 81.6521 32.7627 81.4117 29.6167 81.1151C29.6105 81.1151 29.6048 81.1149 29.5992 81.1146C29.5946 81.1144 29.5901 81.114 29.5856 81.1137C29.5756 81.113 29.5657 81.1123 29.5545 81.1123L29.4517 81.1061V81.0999C28.7367 81.032 28.0194 80.9626 27.3183 80.8923C23.6522 80.5188 20.1771 80.083 17.0197 79.6093C13.8623 79.1355 10.959 78.5938 8.39132 77.9998C6.18003 77.514 4.00507 76.8749 1.88212 76.0871C1.45545 75.9208 1.061 75.7531 0.706384 75.5882L0 75.2593L1.11979 75.2765C1.40519 75.3976 1.71761 75.5212 2.04947 75.6452C4.16144 76.3874 6.32273 76.9804 8.51744 77.4196C10.9533 77.9361 13.8481 78.4322 17.1254 78.8955C20.2743 79.3355 23.7304 79.73 27.3998 80.0626C30.8346 80.3762 34.6026 80.6514 38.9201 80.9037C46.6131 81.3508 54.7774 81.577 63.1839 81.577H64.8413C69.0511 81.577 73.3232 81.5167 77.5373 81.3955L86.8877 81.0239C87.6273 80.9868 88.3664 80.9493 89.0969 80.9065C93.496 80.6466 97.2645 80.3705 100.615 80.064C104.278 79.729 107.735 79.336 110.89 78.896C114.24 78.4222 117.053 77.9361 119.495 77.4196C121.69 76.9809 123.852 76.388 125.963 75.6452C126.279 75.5278 126.591 75.4029 126.895 75.2765Z" fill="white"/>
<path d="M39.9913 89.1322L44.3254 95.5991L48.4177 89.4891C49.6186 89.5299 50.8323 89.5618 52.0597 89.5922V100.332H48.6894V94.1065L44.6388 100.332H44.0121L39.9586 94.1065V100.334H36.5893V88.9378C37.7039 89.0091 38.8421 89.0718 39.9913 89.1322Z" fill="white"/>
<path d="M67.3968 100.335H64.0251V89.7314C65.155 89.7314 66.2789 89.7277 67.3968 89.7204V100.335Z" fill="white"/>
<path d="M82.5737 89.3788L82.7353 89.3727V97.4895H92.0909V100.335H79.3655V89.4901C80.4428 89.4589 81.512 89.4187 82.5709 89.3789L82.5724 89.3789L82.5737 89.3788Z" fill="white"/>
<path d="M102.742 88.0738L106.708 93.3162L111.586 86.9704C113.28 86.72 114.861 86.4615 116.31 86.1873L108.42 96.3236L108.394 96.3555V100.335H105.023V96.3745L98.8575 88.3955C100.059 88.2923 101.23 88.185 102.372 88.0738H102.742Z" fill="white"/>
<path d="M24.7998 100.335H12.7035L12.7006 86.3859C16.133 86.9928 20.2049 87.5349 24.7969 87.9983V89.4804H16.0737V92.0754H24.7969V94.9161H16.0737V97.4897H24.7998V100.335Z" fill="white"/>
<path fill-rule="evenodd" clip-rule="evenodd" d="M53.9889 116.448C53.9789 115.744 54.2318 115.14 54.7476 114.636C55.2633 114.132 55.8767 113.886 56.5878 113.895C57.2939 113.886 57.9073 114.132 58.428 114.636C58.9538 115.14 59.2092 115.744 59.1942 116.448C59.2092 117.151 58.9538 117.755 58.428 118.259C57.9073 118.763 57.2939 119.01 56.5878 119C55.8767 119.01 55.2608 118.763 54.7401 118.259C54.2243 117.755 53.9739 117.151 53.9889 116.448ZM58.3755 116.44C58.3755 115.921 58.2052 115.49 57.8647 115.145C57.5242 114.796 57.1011 114.621 56.5953 114.621C56.0846 114.621 55.6589 114.794 55.3184 115.138C54.9829 115.482 54.8152 115.916 54.8152 116.44C54.8152 116.969 54.9829 117.408 55.3184 117.757C55.6539 118.102 56.0795 118.274 56.5953 118.274C57.1011 118.274 57.5242 118.099 57.8647 117.75C58.2052 117.401 58.3755 116.964 58.3755 116.44Z" fill="white"/>
<path d="M44.8558 118.917V113.978H45.652V115.946H48.1457V113.978H48.9419V118.917H48.1457V116.657H45.652V118.917H44.8558Z" fill="white"/>
<path d="M65.2979 114.689V118.917H66.0941V114.689H67.7691V113.978H63.6305V114.689H65.2979Z" fill="white"/>
<path d="M72.6063 113.978H75.8662V114.689H73.4025V115.954H75.2578V116.642H73.4025V118.206H75.9563V118.917H72.6063V113.978Z" fill="white"/>
<path d="M81.7725 113.978H80.9763V118.917H84.0408V118.206H81.7725V113.978Z" fill="white"/>
</svg>
