<?xml version="1.0" encoding="UTF-8"?>
<svg id="Layer_2" data-name="Layer 2" xmlns="http://www.w3.org/2000/svg" viewBox="0 0 206.95 101.26">
  <defs>
    <style>
      .cls-1 {
        fill: #ceb27f;
      }
    </style>
  </defs>
  <path class="cls-1" d="M35.26,81.09c-.37.41-.76.82-1.15,1.25,2.33,2.39,5.35,5.1,9.17,7.68,4.54,3.06,11.49,6.81,12.6,5.47.94-1.14-3.76-4.77-6.51-11.74-1.74-4.41-2.1-8.66-1.97-12.19-3.28,1.66-6.22,3.6-8.62,5.87-1.13,1.07-2.24,2.27-3.51,3.66Z"/>
  <path class="cls-1" d="M102.01,83.39c-1.38,6.88-5.27,11.15-4.11,12.16,1.29,1.12,7.04-2.84,11.06-7.07,3.47-3.64,5.68-7.5,7.15-10.85-3.74-3.35-8.96-6.16-15.09-8.24,1.26,3.99,2.02,8.81.99,13.99Z"/>
  <path class="cls-1" d="M206.74,86.14c-.16-.22-.42-.31-.75-.31-2.13,0-7.68,3.71-16.36,3.71-.16,0-.33,0-.5,0-1.4-.02-5.64-.19-11.76-2.48-15.24-5.7-30.5-20.19-36.21-25.14-15.78-13.66-35.15-20.59-48.95-22.79-4.75-.76-9.44-1.05-13.97-1.05-15.72,0-29.53,3.56-37.75,3.56-3.71,0-6.28-.73-7.37-2.83-.55-1.06-1.83-5.15-1.13-9.95.36-2.49,1.45-4.86,3.2-6.36,3.71-3.2,7.46-.6,10.55-4.05,1.22-1.35,1.62-2.97,1.78-4.05-3.56-3.34-7.13-6.68-10.69-10.01-.62-3.15-1.41-4.37-2.61-4.37-1.08,0-2.49,1-4.38,2.46-.28-.02-.57-.03-.86-.03-.98,0-1.98.13-2.9.37-.5-.95-1.66-2.14-2.38-2.2-.07,0-.13-.01-.2-.01-4.08,0-8.6,13.76-8.9,14.68-.54,1.68-1.26,3.96-1.79,6.88-.5,2.74-.61,4.85-.67,6.03-.35,6.62.63,13.2,1.18,16.37-.45,2.04-1.04,5.15-1.36,8.97-1.17,13.98,2.88,18.32,1.51,26.56C11.35,92.99-1.37,99.05.12,100.93c.18.22.5.32.95.32,3.1,0,12.12-4.94,18.13-9.11,9.81-6.79,13.66-12.52,17.88-16.51,9.29-8.78,24.06-12.65,38.86-12.65,18.39,0,36.81,5.97,44.79,15.9.84,1.04,2.56,3.37,5.26,6.37.55.61,3.1,3.41,6.01,6.06,4.93,4.48,12.32,9.81,14.42,9.81.2,0,.35-.05.44-.15.9-.93-4.04-5.22-7.53-13.98-2.18-5.47-4.72-14.93-2.35-16.31.18-.1.37-.15.58-.15,4.01,0,13.64,18.45,35.38,27.34,6.2,2.53,10.95,3.3,14.48,3.3s5.72-.73,7.05-1.25c8.45-3.3,13.61-12.04,12.28-13.79Z"/>
</svg>