<?xml version="1.0" encoding="UTF-8"?>
<svg id="Layer_2" data-name="Layer 2" xmlns="http://www.w3.org/2000/svg" viewBox="0 0 400 119.99">
  <defs>
    <style>
      .cls-1 {
        fill: #22282b;
      }
    </style>
  </defs>
  <path class="cls-1" d="M42.34.01C34.6.01,26.54,3.98,22.44,9.34V1.59H0c1.26,1.89,3.47,3.93,3.47,24.45v69.46c0,20.52-2.21,22.59-3.47,24.49h25.88c-1.26-1.89-3.47-3.93-3.47-24.49v-27.61c5.82,8.03,14.83,14.21,24.62,14.21C98.92,82.1,103.71.01,42.34.01ZM42.29,78c-8.35,0-15.15-6-19.88-12.63V12.47c3.65-5.19,10.1-8.67,17.04-8.67,39.31,0,35.03,74.2,2.84,74.2Z"/>
  <path class="cls-1" d="M304.02,33.34C304.02,11.1,291.4.01,273.41.01c-13.43,0-25.07,14.35-30.12,28.24V1.59h-22.41c1.26,1.89,3.47,3.93,3.47,24.45v29.99c0,20.52-2.21,22.56-3.47,24.45h25.7c-1.09-1.75-3.3-3.79-3.3-24.31v-23.36c6-18.77,17.99-27.78,26.65-27.78,15.32,0,15.15,22.1,15.15,31.4v19.58c0,20.52-2.21,22.56-3.47,24.45h25.7c-1.09-1.75-3.3-3.79-3.3-24.31v-22.87.07Z"/>
  <path class="cls-1" d="M357.04.01c-57.75,0-57.44,82.09,0,82.09S414.16.01,357.04.01ZM328.88,69.22c-22.84-22.84,33.02-79.61,56.32-56.32,23.29,23.29-33.47,79.16-56.32,56.32Z"/>
  <path class="cls-1" d="M205.34,11.95c-2.42-3.85-6.85-9.37-13.13-11.09-14.06-3.87-18.48,7.31-30.89,7.99S149.56-1.08,137.16.09c-5.56.52-13.13,6.52-20.6,25.81V1.63h-22.41c1.26,1.89,3.47,3.93,3.47,24.45v29.99c0,20.52-2.21,22.56-3.47,24.45h25.74c-1.12-1.75-3.33-3.79-3.33-24.31v-27.33c8.1-15.58,14.52-19.82,20.64-20.84,7.58-1.26,10.91,1.89,22.48,2.43,15.34.72,18.39-6.01,26.31-2.5,5.71,2.86,4.94,11.3,5.05,13.54.04.88.07,1.61.07,2.18v10.42c-4.73-3.16-11.19-4.42-16.73-4.42-23.35,0-35.49,15.15-35.49,28.73s11.82,23.68,24.62,23.68,22.55-6.14,27.6-15.79v14.21h22.23c-1.09-1.75-3.33-3.93-3.33-24.45v-20.52c0-7.02-.7-17.29-4.67-23.6ZM191.07,62.39c-4.1,10.1-11.19,14.84-17.81,14.84-8.21,0-15.64-7.09-15.64-20.21,0-14.84,9.96-24.94,21.32-24.94,3.93,0,8.21,1.26,12.13,3.93v26.38Z"/>
</svg>