<?xml version="1.0" encoding="UTF-8"?>
<svg id="Layer_2" data-name="Layer 2" xmlns="http://www.w3.org/2000/svg" viewBox="0 0 626.06 140.76">
  <defs>
    <style>
      .cls-1 {
        fill: #ceb27f;
      }
    </style>
  </defs>
  <g>
    <path class="cls-1" d="M42.34,20.78c-7.75,0-15.8,3.96-19.9,9.33v-7.75H0c1.26,1.89,3.47,3.93,3.47,24.45v69.46c0,20.52-2.21,22.59-3.47,24.49h25.88c-1.26-1.89-3.47-3.93-3.47-24.49v-27.61c5.82,8.03,14.83,14.21,24.62,14.21,51.9,0,56.69-82.09-4.68-82.09ZM42.29,98.77c-8.35,0-15.15-6-19.88-12.63v-52.9c3.65-5.19,10.1-8.67,17.04-8.67,39.31,0,35.03,74.2,2.84,74.2Z"/>
    <path class="cls-1" d="M304.02,54.11c0-22.24-12.62-33.33-30.61-33.33-13.43,0-25.07,14.35-30.12,28.24v-26.66h-22.41c1.26,1.89,3.47,3.93,3.47,24.45v29.99c0,20.52-2.21,22.56-3.47,24.45h25.7c-1.09-1.75-3.3-3.79-3.3-24.31v-23.36c6-18.77,17.99-27.78,26.65-27.78,15.32,0,15.15,22.1,15.15,31.4v19.58c0,20.52-2.21,22.56-3.47,24.45h25.7c-1.09-1.75-3.3-3.79-3.3-24.31v-22.87.07Z"/>
    <path class="cls-1" d="M357.04,20.78c-57.75,0-57.44,82.09,0,82.09s57.12-82.09,0-82.09ZM328.88,89.99c-22.84-22.84,33.02-79.61,56.32-56.32,23.29,23.29-33.47,79.16-56.32,56.32Z"/>
    <path class="cls-1" d="M205.34,32.72c-2.42-3.85-6.85-9.37-13.13-11.09-14.06-3.87-18.48,7.31-30.89,7.99s-11.76-9.92-24.16-8.76c-5.56.52-13.13,6.52-20.6,25.81v-24.28h-22.41c1.26,1.89,3.47,3.93,3.47,24.45v29.99c0,20.52-2.21,22.56-3.47,24.45h25.74c-1.12-1.75-3.33-3.79-3.33-24.31v-27.33c8.1-15.58,14.52-19.82,20.64-20.84,7.58-1.26,10.91,1.89,22.48,2.43,15.34.72,18.39-6.01,26.31-2.5,5.71,2.86,4.94,11.3,5.05,13.54.04.88.07,1.61.07,2.18v10.42c-4.73-3.16-11.19-4.42-16.73-4.42-23.35,0-35.49,15.15-35.49,28.73s11.82,23.68,24.62,23.68,22.55-6.14,27.6-15.79v14.21h22.23c-1.09-1.75-3.33-3.93-3.33-24.45v-20.52c0-7.02-.7-17.29-4.67-23.6ZM191.07,83.16c-4.1,10.1-11.19,14.84-17.81,14.84-8.21,0-15.64-7.09-15.64-20.21,0-14.84,9.96-24.94,21.32-24.94,3.93,0,8.21,1.26,12.13,3.93v26.38Z"/>
  </g>
  <g>
    <path class="cls-1" d="M454.37,81.09c-.37.41-.76.82-1.15,1.25,2.33,2.39,5.35,5.1,9.17,7.68,4.54,3.06,11.49,6.81,12.6,5.47.94-1.14-3.76-4.77-6.51-11.74-1.74-4.41-2.1-8.66-1.97-12.19-3.28,1.66-6.22,3.6-8.62,5.87-1.13,1.07-2.24,2.27-3.51,3.66Z"/>
    <path class="cls-1" d="M521.12,83.39c-1.38,6.88-5.27,11.15-4.11,12.16,1.29,1.12,7.04-2.84,11.06-7.07,3.47-3.64,5.68-7.5,7.15-10.85-3.74-3.35-8.96-6.16-15.09-8.24,1.26,3.99,2.02,8.81.99,13.99Z"/>
    <path class="cls-1" d="M625.85,86.14c-.16-.22-.42-.31-.75-.31-2.13,0-7.68,3.71-16.36,3.71-.16,0-.33,0-.5,0-1.4-.02-5.64-.19-11.76-2.48-15.24-5.7-30.5-20.19-36.21-25.14-15.78-13.66-35.15-20.59-48.95-22.79-4.75-.76-9.44-1.05-13.97-1.05-15.72,0-29.53,3.56-37.75,3.56-3.71,0-6.28-.73-7.37-2.83-.55-1.06-1.83-5.15-1.13-9.95.36-2.49,1.45-4.86,3.2-6.36,3.71-3.2,7.46-.6,10.55-4.05,1.22-1.35,1.62-2.97,1.78-4.05-3.56-3.34-7.13-6.68-10.69-10.01-.62-3.15-1.41-4.37-2.61-4.37-1.08,0-2.49,1-4.38,2.46-.28-.02-.57-.03-.86-.03-.98,0-1.98.13-2.9.37-.5-.95-1.66-2.14-2.38-2.2-.07,0-.13-.01-.2-.01-4.08,0-8.6,13.76-8.9,14.68-.54,1.68-1.26,3.96-1.79,6.88-.5,2.74-.61,4.85-.67,6.03-.35,6.62.63,13.2,1.18,16.37-.45,2.04-1.04,5.15-1.36,8.97-1.17,13.98,2.88,18.32,1.51,26.56-2.14,12.91-14.85,18.97-13.37,20.85.18.22.5.32.95.32,3.1,0,12.12-4.94,18.13-9.11,9.81-6.79,13.66-12.52,17.88-16.51,9.29-8.78,24.06-12.65,38.86-12.65,18.39,0,36.81,5.97,44.79,15.9.84,1.04,2.56,3.37,5.26,6.37.55.61,3.1,3.41,6.01,6.06,4.93,4.48,12.32,9.81,14.42,9.81.2,0,.35-.05.44-.15.9-.93-4.04-5.22-7.53-13.98-2.18-5.47-4.72-14.93-2.35-16.31.18-.1.37-.15.58-.15,4.01,0,13.64,18.45,35.38,27.34,6.2,2.53,10.95,3.3,14.48,3.3s5.72-.73,7.05-1.25c8.45-3.3,13.61-12.04,12.28-13.79Z"/>
  </g>
</svg>